<svg width="17" height="19" viewBox="0 0 17 19" fill="none" xmlns="http://www.w3.org/2000/svg">
<path d="M3.21533 16.1475H13.9456L12.7832 17.3724C12.6148 17.5512 12.5202 17.7937 12.5202 18.0466C12.5202 18.2994 12.6148 18.542 12.7832 18.7208C12.9516 18.8996 13.1799 19 13.4181 19C13.6562 19 13.8845 18.8996 14.0529 18.7208L16.7355 15.8722C16.8193 15.7839 16.8858 15.6789 16.9312 15.5632C16.9766 15.4475 17 15.3233 17 15.198C17 15.0726 16.9766 14.9485 16.9312 14.8328C16.8858 14.7171 16.8193 14.6121 16.7355 14.5238L14.0529 11.6752C13.9698 11.5862 13.8709 11.5156 13.7619 11.4674C13.653 11.4192 13.5361 11.3944 13.4181 11.3944C13.3 11.3944 13.1831 11.4192 13.0742 11.4674C12.9652 11.5156 12.8663 11.5862 12.7832 11.6752C12.6994 11.7635 12.6328 11.8685 12.5874 11.9842C12.542 12.0999 12.5187 12.2241 12.5187 12.3494C12.5187 12.4748 12.542 12.5989 12.5874 12.7146C12.6328 12.8303 12.6994 12.9353 12.7832 13.0236L13.9456 14.2485H3.21533C3.03214 14.2522 2.85004 14.2177 2.67943 14.1467C2.50883 14.0757 2.35306 13.9697 2.22103 13.8348C2.089 13.6999 1.98329 13.5387 1.90995 13.3604C1.8366 13.1821 1.79706 12.9902 1.79357 12.7957V10.4503C1.79357 10.1985 1.69936 9.95699 1.53166 9.77892C1.36397 9.60085 1.13653 9.50081 0.899376 9.50081C0.662222 9.50081 0.434781 9.60085 0.267087 9.77892C0.0993939 9.95699 0.00518482 10.1985 0.00518482 10.4503V12.7957C0.00869282 13.2396 0.09451 13.6784 0.257736 14.0871C0.420963 14.4958 0.658401 14.8664 0.956494 15.1776C1.25459 15.4889 1.60749 15.7347 1.99507 15.9011C2.38264 16.0676 2.79729 16.1513 3.21533 16.1475ZM2.94707 7.32639C3.11545 7.50519 3.34382 7.60563 3.58195 7.60563C3.82007 7.60563 4.04845 7.50519 4.21682 7.32639C4.3852 7.14759 4.4798 6.90508 4.4798 6.65222C4.4798 6.39936 4.3852 6.15685 4.21682 5.97805L3.05438 4.75316H13.7847C13.9679 4.74938 14.15 4.78397 14.3206 4.85494C14.4912 4.92591 14.6469 5.03188 14.779 5.16679C14.911 5.3017 15.0167 5.46291 15.0901 5.64121C15.1634 5.81951 15.2029 6.01141 15.2064 6.20594V8.55128C15.2064 8.80311 15.3006 9.04463 15.4683 9.2227C15.636 9.40077 15.8635 9.50081 16.1006 9.50081C16.3378 9.50081 16.5652 9.40077 16.7329 9.2227C16.9006 9.04463 16.9948 8.80311 16.9948 8.55128V6.20594C16.9913 5.76202 16.9055 5.32319 16.7423 4.91449C16.579 4.5058 16.3416 4.13524 16.0435 3.82399C15.7454 3.51274 15.3925 3.26689 15.0049 3.10048C14.6174 2.93406 14.2027 2.85034 13.7847 2.8541H3.05438L4.21682 1.6292C4.30064 1.54093 4.36716 1.43591 4.41255 1.3202C4.45795 1.20449 4.48132 1.08039 4.48132 0.955036C4.48132 0.829687 4.45795 0.705578 4.41255 0.589869C4.36716 0.47416 4.30064 0.369141 4.21682 0.28087C4.1337 0.191872 4.0348 0.121232 3.92583 0.0730255C3.81687 0.0248191 3.69999 0 3.58195 0C3.46391 0 3.34703 0.0248191 3.23806 0.0730255C3.1291 0.121232 3.0302 0.191872 2.94707 0.28087L0.2645 3.12946C0.180689 3.21773 0.114166 3.32275 0.0687695 3.43846C0.0233726 3.55417 0 3.67828 0 3.80363C0 3.92898 0.0233726 4.05309 0.0687695 4.1688C0.114166 4.2845 0.180689 4.38952 0.2645 4.47779L2.94707 7.32639Z" fill="black"/>
</svg>
